<svg viewBox="0 0 48 55" width="48" height="55" xmlns="http://www.w3.org/2000/svg" fill="none"><path d="M15.286 38.072a9.643 9.643 0 1 0 0-19.286 9.643 9.643 0 0 0 0 19.286Z" stroke="url(#a)" stroke-width="3.571"/><path d="M.003 30.714Q0 30.893 0 31.072C0 44.287 10.713 55 23.929 55s23.928-10.713 23.928-23.928q0-.18-.002-.358z" fill="url(#b)"/><path d="M35.643 24.5a4.286 4.286 0 1 0 0-8.571 4.286 4.286 0 0 0 0 8.571Z" stroke="#EAA427" stroke-width="2.143"/><path d="M27.786 10.214a4.286 4.286 0 1 0 0-8.571 4.286 4.286 0 0 0 0 8.571Z" stroke="#EA7727" stroke-width="2.143"/><defs><linearGradient id="a" x1="7.429" y1="20.214" x2="22.429" y2="37.714" gradientUnits="userSpaceOnUse"><stop stop-color="#EA6D27"/><stop offset="1" stop-color="#EAA827"/></linearGradient><linearGradient id="b" x1="6.429" y1="30.714" x2="35" y2="46.429" gradientUnits="userSpaceOnUse"><stop stop-color="#FF9400"/><stop offset="1" stop-color="#EA6D27"/></linearGradient></defs></svg>